solid ascii
  facet normal -2.500409e-001 1.107944e-015 9.682353e-001
    outer loop
      vertex   -3.859677e+001 -2.000000e+000 2.500000e+000
      vertex   -2.522789e+001 -2.000000e+000 5.952433e+000
      vertex   -3.859677e+001 5.896000e+000 2.500000e+000
    endloop
  endfacet
  facet normal -2.500409e-001 1.089116e-015 9.682353e-001
    outer loop
      vertex   -3.859677e+001 5.896000e+000 2.500000e+000
      vertex   -2.522789e+001 -2.000000e+000 5.952433e+000
      vertex   -2.522789e+001 5.896000e+000 5.952433e+000
    endloop
  endfacet
  facet normal 1.000000e+000 -1.611271e-030 -1.790546e-015
    outer loop
      vertex   -2.522789e+001 5.896000e+000 -5.952471e+000
      vertex   -2.522789e+001 5.896000e+000 5.952433e+000
      vertex   -2.522789e+001 -2.000000e+000 -5.952471e+000
    endloop
  endfacet
  facet normal 1.000000e+000 -2.014089e-030 -1.790546e-015
    outer loop
      vertex   -2.522789e+001 -2.000000e+000 -5.952471e+000
      vertex   -2.522789e+001 5.896000e+000 5.952433e+000
      vertex   -2.522789e+001 -2.000000e+000 5.952433e+000
    endloop
  endfacet
  facet normal -2.500389e-001 -1.107923e-015 -9.682358e-001
    outer loop
      vertex   -3.859703e+001 5.896000e+000 -2.500000e+000
      vertex   -2.522789e+001 5.896000e+000 -5.952471e+000
      vertex   -3.859703e+001 -2.000000e+000 -2.500000e+000
    endloop
  endfacet
  facet normal -2.500389e-001 -1.089116e-015 -9.682358e-001
    outer loop
      vertex   -3.859703e+001 -2.000000e+000 -2.500000e+000
      vertex   -2.522789e+001 5.896000e+000 -5.952471e+000
      vertex   -2.522789e+001 -2.000000e+000 -5.952471e+000
    endloop
  endfacet
  facet normal 1.512754e-016 -1.000000e+000 1.336909e-015
    outer loop
      vertex   -2.692118e+001 -2.000000e+000 -2.106932e+000
      vertex   -2.729624e+001 -2.000000e+000 -3.559286e+000
      vertex   -2.522789e+001 -2.000000e+000 -5.952471e+000
    endloop
  endfacet
  facet normal -1.739639e-016 -1.000000e+000 1.193698e-015
    outer loop
      vertex   -2.522789e+001 -2.000000e+000 5.952433e+000
      vertex   -2.692118e+001 -2.000000e+000 -2.106932e+000
      vertex   -2.522789e+001 -2.000000e+000 -5.952471e+000
    endloop
  endfacet
  facet normal -1.007429e-017 -1.000000e+000 1.159264e-015
    outer loop
      vertex   -2.522789e+001 -2.000000e+000 5.952433e+000
      vertex   -2.692118e+001 -2.000000e+000 2.106932e+000
      vertex   -2.692118e+001 -2.000000e+000 -2.106932e+000
    endloop
  endfacet
  facet normal -3.165693e-016 -1.000000e+000 1.294223e-015
    outer loop
      vertex   -2.522789e+001 -2.000000e+000 5.952433e+000
      vertex   -2.729624e+001 -2.000000e+000 3.559286e+000
      vertex   -2.692118e+001 -2.000000e+000 2.106932e+000
    endloop
  endfacet
  facet normal 1.219870e-016 -1.000000e+000 9.151877e-016
    outer loop
      vertex   -2.522789e+001 -2.000000e+000 5.952433e+000
      vertex   -3.039459e+001 -2.000000e+000 2.759162e+000
      vertex   -2.729624e+001 -2.000000e+000 3.559286e+000
    endloop
  endfacet
  facet normal 7.707259e-017 -1.000000e+000 9.878591e-016
    outer loop
      vertex   -2.522789e+001 -2.000000e+000 5.952433e+000
      vertex   -3.859677e+001 -2.000000e+000 2.500000e+000
      vertex   -3.039459e+001 -2.000000e+000 2.759162e+000
    endloop
  endfacet
  facet normal 4.517822e-015 -1.000000e+000 -1.395570e-013
    outer loop
      vertex   -3.039459e+001 -2.000000e+000 2.759162e+000
      vertex   -3.859677e+001 -2.000000e+000 2.500000e+000
      vertex   -3.102789e+001 -2.000000e+000 2.500000e+000
    endloop
  endfacet
  facet normal -3.457212e-014 -1.000000e+000 -0.000000e+000
    outer loop
      vertex   -3.001953e+001 -2.000000e+000 1.306808e+000
      vertex   -3.102789e+001 -2.000000e+000 2.500000e+000
      vertex   -3.102789e+001 -2.000000e+000 -2.500000e+000
    endloop
  endfacet
  facet normal -5.662625e-014 -1.000000e+000 1.584635e-014
    outer loop
      vertex   -3.001953e+001 -2.000000e+000 -1.306808e+000
      vertex   -3.102789e+001 -2.000000e+000 -2.500000e+000
      vertex   -3.039459e+001 -2.000000e+000 -2.759162e+000
    endloop
  endfacet
  facet normal -3.938314e-014 -1.000000e+000 1.274353e-015
    outer loop
      vertex   -3.001953e+001 -2.000000e+000 -1.306808e+000
      vertex   -3.001953e+001 -2.000000e+000 1.306808e+000
      vertex   -3.102789e+001 -2.000000e+000 -2.500000e+000
    endloop
  endfacet
  facet normal -1.140951e-016 -1.000000e+000 1.274353e-015
    outer loop
      vertex   -3.001953e+001 -2.000000e+000 -1.306808e+000
      vertex   -2.692118e+001 -2.000000e+000 2.106932e+000
      vertex   -3.001953e+001 -2.000000e+000 1.306808e+000
    endloop
  endfacet
  facet normal 1.270900e-017 -1.000000e+000 1.159264e-015
    outer loop
      vertex   -3.001953e+001 -2.000000e+000 -1.306808e+000
      vertex   -2.692118e+001 -2.000000e+000 -2.106932e+000
      vertex   -2.692118e+001 -2.000000e+000 2.106932e+000
    endloop
  endfacet
  facet normal -4.796187e-014 -1.000000e+000 -1.131555e-014
    outer loop
      vertex   -3.001953e+001 -2.000000e+000 1.306808e+000
      vertex   -3.039459e+001 -2.000000e+000 2.759162e+000
      vertex   -3.102789e+001 -2.000000e+000 2.500000e+000
    endloop
  endfacet
  facet normal 5.309725e-015 -1.000000e+000 1.671956e-013
    outer loop
      vertex   -3.102789e+001 -2.000000e+000 -2.500000e+000
      vertex   -3.859703e+001 -2.000000e+000 -2.500000e+000
      vertex   -3.039459e+001 -2.000000e+000 -2.759162e+000
    endloop
  endfacet
  facet normal 7.020520e-017 -1.000000e+000 1.365208e-015
    outer loop
      vertex   -3.039459e+001 -2.000000e+000 -2.759162e+000
      vertex   -3.859703e+001 -2.000000e+000 -2.500000e+000
      vertex   -2.522789e+001 -2.000000e+000 -5.952471e+000
    endloop
  endfacet
  facet normal -6.030313e-017 -1.000000e+000 1.154049e-015
    outer loop
      vertex   -2.729624e+001 -2.000000e+000 -3.559286e+000
      vertex   -3.039459e+001 -2.000000e+000 -2.759162e+000
      vertex   -2.522789e+001 -2.000000e+000 -5.952471e+000
    endloop
  endfacet
  facet normal 0.000000e+000 -0.000000e+000 1.000000e+000
    outer loop
      vertex   -3.859703e+001 -2.000000e+000 -2.500000e+000
      vertex   -3.128945e+001 1.968117e+000 -2.500000e+000
      vertex   -3.859703e+001 5.896000e+000 -2.500000e+000
    endloop
  endfacet
  facet normal 0.000000e+000 -0.000000e+000 1.000000e+000
    outer loop
      vertex   -3.859703e+001 -2.000000e+000 -2.500000e+000
      vertex   -3.119019e+001 9.785787e-001 -2.500000e+000
      vertex   -3.128945e+001 1.968117e+000 -2.500000e+000
    endloop
  endfacet
  facet normal 0.000000e+000 -0.000000e+000 1.000000e+000
    outer loop
      vertex   -3.859703e+001 -2.000000e+000 -2.500000e+000
      vertex   -3.111349e+001 -1.296316e-002 -2.500000e+000
      vertex   -3.119019e+001 9.785787e-001 -2.500000e+000
    endloop
  endfacet
  facet normal 0.000000e+000 -0.000000e+000 1.000000e+000
    outer loop
      vertex   -3.859703e+001 -2.000000e+000 -2.500000e+000
      vertex   -3.105938e+001 -1.005994e+000 -2.500000e+000
      vertex   -3.111349e+001 -1.296316e-002 -2.500000e+000
    endloop
  endfacet
  facet normal 0.000000e+000 -0.000000e+000 1.000000e+000
    outer loop
      vertex   -3.859703e+001 -2.000000e+000 -2.500000e+000
      vertex   -3.102789e+001 -2.000000e+000 -2.500000e+000
      vertex   -3.105938e+001 -1.005994e+000 -2.500000e+000
    endloop
  endfacet
  facet normal 0.000000e+000 0.000000e+000 1.000000e+000
    outer loop
      vertex   -3.128945e+001 1.968117e+000 -2.500000e+000
      vertex   -3.141122e+001 2.955139e+000 -2.500000e+000
      vertex   -3.859703e+001 5.896000e+000 -2.500000e+000
    endloop
  endfacet
  facet normal -0.000000e+000 -0.000000e+000 1.000000e+000
    outer loop
      vertex   -3.859703e+001 5.896000e+000 -2.500000e+000
      vertex   -3.141122e+001 2.955139e+000 -2.500000e+000
      vertex   -3.155542e+001 3.939134e+000 -2.500000e+000
    endloop
  endfacet
  facet normal 0.000000e+000 0.000000e+000 1.000000e+000
    outer loop
      vertex   -3.172198e+001 4.919590e+000 -2.500000e+000
      vertex   -3.859703e+001 5.896000e+000 -2.500000e+000
      vertex   -3.155542e+001 3.939134e+000 -2.500000e+000
    endloop
  endfacet
  facet normal 0.000000e+000 0.000000e+000 1.000000e+000
    outer loop
      vertex   -3.172198e+001 4.919590e+000 -2.500000e+000
      vertex   -3.191083e+001 5.896000e+000 -2.500000e+000
      vertex   -3.859703e+001 5.896000e+000 -2.500000e+000
    endloop
  endfacet
  facet normal -9.818057e-001 -1.898885e-001 -1.892227e-015
    outer loop
      vertex   -3.191083e+001 5.896000e+000 -2.500000e+000
      vertex   -3.172198e+001 4.919590e+000 -2.500000e+000
      vertex   -3.191083e+001 5.896000e+000 2.500000e+000
    endloop
  endfacet
  facet normal -9.818057e-001 -1.898885e-001 -1.192844e-015
    outer loop
      vertex   -3.191083e+001 5.896000e+000 2.500000e+000
      vertex   -3.172198e+001 4.919590e+000 -2.500000e+000
      vertex   -3.172198e+001 4.919590e+000 2.500000e+000
    endloop
  endfacet
  facet normal -9.858743e-001 -1.674869e-001 -1.222502e-015
    outer loop
      vertex   -3.172198e+001 4.919590e+000 2.500000e+000
      vertex   -3.172198e+001 4.919590e+000 -2.500000e+000
      vertex   -3.155542e+001 3.939134e+000 -2.500000e+000
    endloop
  endfacet
  facet normal -9.894319e-001 -1.449985e-001 1.030276e-016
    outer loop
      vertex   -3.155542e+001 3.939134e+000 2.500000e+000
      vertex   -3.155542e+001 3.939134e+000 -2.500000e+000
      vertex   -3.141122e+001 2.955139e+000 -2.500000e+000
    endloop
  endfacet
  facet normal -9.924765e-001 -1.224349e-001 8.699526e-017
    outer loop
      vertex   -3.141122e+001 2.955139e+000 2.500000e+000
      vertex   -3.141122e+001 2.955139e+000 -2.500000e+000
      vertex   -3.128945e+001 1.968117e+000 -2.500000e+000
    endloop
  endfacet
  facet normal -9.950067e-001 -9.980790e-002 6.205306e-017
    outer loop
      vertex   -3.128945e+001 1.968117e+000 2.500000e+000
      vertex   -3.128945e+001 1.968117e+000 -2.500000e+000
      vertex   -3.119019e+001 9.785787e-001 -2.500000e+000
    endloop
  endfacet
  facet normal -9.970211e-001 -7.712912e-002 2.740177e-017
    outer loop
      vertex   -3.119019e+001 9.785787e-001 2.500000e+000
      vertex   -3.119019e+001 9.785787e-001 -2.500000e+000
      vertex   -3.111349e+001 -1.296316e-002 -2.500000e+000
    endloop
  endfacet
  facet normal -9.985187e-001 -5.441035e-002 2.174674e-017
    outer loop
      vertex   -3.111349e+001 -1.296316e-002 2.500000e+000
      vertex   -3.111349e+001 -1.296316e-002 -2.500000e+000
      vertex   -3.105938e+001 -1.005994e+000 -2.500000e+000
    endloop
  endfacet
  facet normal -9.994986e-001 -3.166338e-002 7.030682e-018
    outer loop
      vertex   -3.105938e+001 -1.005994e+000 2.500000e+000
      vertex   -3.105938e+001 -1.005994e+000 -2.500000e+000
      vertex   -3.102789e+001 -2.000000e+000 2.500000e+000
    endloop
  endfacet
  facet normal -9.985187e-001 -5.441035e-002 1.255903e-017
    outer loop
      vertex   -3.105938e+001 -1.005994e+000 2.500000e+000
      vertex   -3.111349e+001 -1.296316e-002 2.500000e+000
      vertex   -3.105938e+001 -1.005994e+000 -2.500000e+000
    endloop
  endfacet
  facet normal -9.858743e-001 -1.674869e-001 1.190066e-016
    outer loop
      vertex   -3.172198e+001 4.919590e+000 2.500000e+000
      vertex   -3.155542e+001 3.939134e+000 -2.500000e+000
      vertex   -3.155542e+001 3.939134e+000 2.500000e+000
    endloop
  endfacet
  facet normal -9.894319e-001 -1.449985e-001 1.030276e-016
    outer loop
      vertex   -3.155542e+001 3.939134e+000 2.500000e+000
      vertex   -3.141122e+001 2.955139e+000 -2.500000e+000
      vertex   -3.141122e+001 2.955139e+000 2.500000e+000
    endloop
  endfacet
  facet normal -9.924765e-001 -1.224349e-001 7.612085e-017
    outer loop
      vertex   -3.141122e+001 2.955139e+000 2.500000e+000
      vertex   -3.128945e+001 1.968117e+000 -2.500000e+000
      vertex   -3.128945e+001 1.968117e+000 2.500000e+000
    endloop
  endfacet
  facet normal -9.950067e-001 -9.980790e-002 3.545889e-017
    outer loop
      vertex   -3.128945e+001 1.968117e+000 2.500000e+000
      vertex   -3.119019e+001 9.785787e-001 -2.500000e+000
      vertex   -3.119019e+001 9.785787e-001 2.500000e+000
    endloop
  endfacet
  facet normal -9.970211e-001 -7.712912e-002 3.082699e-017
    outer loop
      vertex   -3.119019e+001 9.785787e-001 2.500000e+000
      vertex   -3.111349e+001 -1.296316e-002 -2.500000e+000
      vertex   -3.111349e+001 -1.296316e-002 2.500000e+000
    endloop
  endfacet
  facet normal -9.994986e-001 -3.166338e-002 0.000000e+000
    outer loop
      vertex   -3.105938e+001 -1.005994e+000 -2.500000e+000
      vertex   -3.102789e+001 -2.000000e+000 -2.500000e+000
      vertex   -3.102789e+001 -2.000000e+000 2.500000e+000
    endloop
  endfacet
  facet normal 0.000000e+000 -0.000000e+000 -1.000000e+000
    outer loop
      vertex   -3.859677e+001 5.896000e+000 2.500000e+000
      vertex   -3.128945e+001 1.968117e+000 2.500000e+000
      vertex   -3.859677e+001 -2.000000e+000 2.500000e+000
    endloop
  endfacet
  facet normal 0.000000e+000 0.000000e+000 -1.000000e+000
    outer loop
      vertex   -3.859677e+001 5.896000e+000 2.500000e+000
      vertex   -3.141122e+001 2.955139e+000 2.500000e+000
      vertex   -3.128945e+001 1.968117e+000 2.500000e+000
    endloop
  endfacet
  facet normal 0.000000e+000 0.000000e+000 -1.000000e+000
    outer loop
      vertex   -3.859677e+001 5.896000e+000 2.500000e+000
      vertex   -3.155542e+001 3.939134e+000 2.500000e+000
      vertex   -3.141122e+001 2.955139e+000 2.500000e+000
    endloop
  endfacet
  facet normal 0.000000e+000 0.000000e+000 -1.000000e+000
    outer loop
      vertex   -3.859677e+001 5.896000e+000 2.500000e+000
      vertex   -3.172198e+001 4.919590e+000 2.500000e+000
      vertex   -3.155542e+001 3.939134e+000 2.500000e+000
    endloop
  endfacet
  facet normal 0.000000e+000 0.000000e+000 -1.000000e+000
    outer loop
      vertex   -3.859677e+001 5.896000e+000 2.500000e+000
      vertex   -3.191083e+001 5.896000e+000 2.500000e+000
      vertex   -3.172198e+001 4.919590e+000 2.500000e+000
    endloop
  endfacet
  facet normal 0.000000e+000 -0.000000e+000 -1.000000e+000
    outer loop
      vertex   -3.128945e+001 1.968117e+000 2.500000e+000
      vertex   -3.119019e+001 9.785787e-001 2.500000e+000
      vertex   -3.859677e+001 -2.000000e+000 2.500000e+000
    endloop
  endfacet
  facet normal 0.000000e+000 0.000000e+000 -1.000000e+000
    outer loop
      vertex   -3.859677e+001 -2.000000e+000 2.500000e+000
      vertex   -3.119019e+001 9.785787e-001 2.500000e+000
      vertex   -3.111349e+001 -1.296316e-002 2.500000e+000
    endloop
  endfacet
  facet normal -0.000000e+000 0.000000e+000 -1.000000e+000
    outer loop
      vertex   -3.105938e+001 -1.005994e+000 2.500000e+000
      vertex   -3.859677e+001 -2.000000e+000 2.500000e+000
      vertex   -3.111349e+001 -1.296316e-002 2.500000e+000
    endloop
  endfacet
  facet normal 0.000000e+000 -0.000000e+000 -1.000000e+000
    outer loop
      vertex   -3.105938e+001 -1.005994e+000 2.500000e+000
      vertex   -3.102789e+001 -2.000000e+000 2.500000e+000
      vertex   -3.859677e+001 -2.000000e+000 2.500000e+000
    endloop
  endfacet
  facet normal -2.500389e-001 -1.212725e-015 -9.682358e-001
    outer loop
      vertex   -3.001953e+001 5.896000e+000 -1.306808e+000
      vertex   -2.692118e+001 5.896000e+000 -2.106932e+000
      vertex   -3.001953e+001 -2.000000e+000 -1.306808e+000
    endloop
  endfacet
  facet normal -2.500389e-001 -1.198028e-015 -9.682358e-001
    outer loop
      vertex   -3.001953e+001 -2.000000e+000 -1.306808e+000
      vertex   -2.692118e+001 5.896000e+000 -2.106932e+000
      vertex   -2.692118e+001 -2.000000e+000 -2.106932e+000
    endloop
  endfacet
  facet normal -9.682358e-001 3.093327e-016 2.500389e-001
    outer loop
      vertex   -2.692118e+001 5.896000e+000 -2.106932e+000
      vertex   -2.729624e+001 5.896000e+000 -3.559286e+000
      vertex   -2.692118e+001 -2.000000e+000 -2.106932e+000
    endloop
  endfacet
  facet normal -9.682358e-001 2.953180e-016 2.500389e-001
    outer loop
      vertex   -2.692118e+001 -2.000000e+000 -2.106932e+000
      vertex   -2.729624e+001 5.896000e+000 -3.559286e+000
      vertex   -2.729624e+001 -2.000000e+000 -3.559286e+000
    endloop
  endfacet
  facet normal -2.500389e-001 1.142422e-015 9.682358e-001
    outer loop
      vertex   -2.692118e+001 5.896000e+000 2.106932e+000
      vertex   -3.001953e+001 5.896000e+000 1.306808e+000
      vertex   -2.692118e+001 -2.000000e+000 2.106932e+000
    endloop
  endfacet
  facet normal -2.500389e-001 1.170800e-015 9.682358e-001
    outer loop
      vertex   -2.692118e+001 -2.000000e+000 2.106932e+000
      vertex   -3.001953e+001 5.896000e+000 1.306808e+000
      vertex   -3.001953e+001 -2.000000e+000 1.306808e+000
    endloop
  endfacet
  facet normal 9.682358e-001 3.093327e-016 2.500389e-001
    outer loop
      vertex   -3.001953e+001 5.896000e+000 1.306808e+000
      vertex   -3.039459e+001 5.896000e+000 2.759162e+000
      vertex   -3.001953e+001 -2.000000e+000 1.306808e+000
    endloop
  endfacet
  facet normal 9.682358e-001 2.953180e-016 2.500389e-001
    outer loop
      vertex   -3.001953e+001 -2.000000e+000 1.306808e+000
      vertex   -3.039459e+001 5.896000e+000 2.759162e+000
      vertex   -3.039459e+001 -2.000000e+000 2.759162e+000
    endloop
  endfacet
  facet normal 2.500389e-001 1.159997e-015 9.682358e-001
    outer loop
      vertex   -2.729624e+001 5.896000e+000 -3.559286e+000
      vertex   -3.039459e+001 5.896000e+000 -2.759162e+000
      vertex   -2.729624e+001 -2.000000e+000 -3.559286e+000
    endloop
  endfacet
  facet normal 2.500389e-001 1.143572e-015 9.682358e-001
    outer loop
      vertex   -2.729624e+001 -2.000000e+000 -3.559286e+000
      vertex   -3.039459e+001 5.896000e+000 -2.759162e+000
      vertex   -3.039459e+001 -2.000000e+000 -2.759162e+000
    endloop
  endfacet
  facet normal 9.682358e-001 -2.999589e-016 -2.500389e-001
    outer loop
      vertex   -3.039459e+001 5.896000e+000 -2.759162e+000
      vertex   -3.001953e+001 5.896000e+000 -1.306808e+000
      vertex   -3.039459e+001 -2.000000e+000 -2.759162e+000
    endloop
  endfacet
  facet normal 9.682358e-001 -3.093808e-016 -2.500389e-001
    outer loop
      vertex   -3.039459e+001 -2.000000e+000 -2.759162e+000
      vertex   -3.001953e+001 5.896000e+000 -1.306808e+000
      vertex   -3.001953e+001 -2.000000e+000 -1.306808e+000
    endloop
  endfacet
  facet normal 2.500389e-001 -1.159997e-015 -9.682358e-001
    outer loop
      vertex   -3.039459e+001 5.896000e+000 2.759162e+000
      vertex   -2.729624e+001 5.896000e+000 3.559286e+000
      vertex   -3.039459e+001 -2.000000e+000 2.759162e+000
    endloop
  endfacet
  facet normal 2.500389e-001 -1.143572e-015 -9.682358e-001
    outer loop
      vertex   -3.039459e+001 -2.000000e+000 2.759162e+000
      vertex   -2.729624e+001 5.896000e+000 3.559286e+000
      vertex   -2.729624e+001 -2.000000e+000 3.559286e+000
    endloop
  endfacet
  facet normal -9.682358e-001 -2.999589e-016 -2.500389e-001
    outer loop
      vertex   -2.729624e+001 5.896000e+000 3.559286e+000
      vertex   -2.692118e+001 5.896000e+000 2.106932e+000
      vertex   -2.729624e+001 -2.000000e+000 3.559286e+000
    endloop
  endfacet
  facet normal -9.682358e-001 -2.953180e-016 -2.500389e-001
    outer loop
      vertex   -2.729624e+001 -2.000000e+000 3.559286e+000
      vertex   -2.692118e+001 5.896000e+000 2.106932e+000
      vertex   -2.692118e+001 -2.000000e+000 2.106932e+000
    endloop
  endfacet
  facet normal -3.985124e-016 1.000000e+000 -7.713996e-016
    outer loop
      vertex   -3.859703e+001 5.896000e+000 -2.500000e+000
      vertex   -3.191083e+001 5.896000e+000 -2.500000e+000
      vertex   -2.522789e+001 5.896000e+000 -5.952471e+000
    endloop
  endfacet
  facet normal -8.754152e-016 1.000000e+000 -1.694539e-015
    outer loop
      vertex   -2.522789e+001 5.896000e+000 -5.952471e+000
      vertex   -3.191083e+001 5.896000e+000 -2.500000e+000
      vertex   -3.039459e+001 5.896000e+000 -2.759162e+000
    endloop
  endfacet
  facet normal -6.157781e-016 1.000000e+000 -1.274452e-015
    outer loop
      vertex   -2.729624e+001 5.896000e+000 -3.559286e+000
      vertex   -2.522789e+001 5.896000e+000 -5.952471e+000
      vertex   -3.039459e+001 5.896000e+000 -2.759162e+000
    endloop
  endfacet
  facet normal 1.164466e-016 1.000000e+000 -6.416155e-016
    outer loop
      vertex   -2.729624e+001 5.896000e+000 -3.559286e+000
      vertex   -2.692118e+001 5.896000e+000 -2.106932e+000
      vertex   -2.522789e+001 5.896000e+000 -5.952471e+000
    endloop
  endfacet
  facet normal -7.984892e-016 1.000000e+000 -1.044485e-015
    outer loop
      vertex   -2.522789e+001 5.896000e+000 -5.952471e+000
      vertex   -2.692118e+001 5.896000e+000 -2.106932e+000
      vertex   -2.522789e+001 5.896000e+000 5.952433e+000
    endloop
  endfacet
  facet normal 1.252616e-015 1.000000e+000 -1.475427e-015
    outer loop
      vertex   -2.522789e+001 5.896000e+000 5.952433e+000
      vertex   -2.692118e+001 5.896000e+000 -2.106932e+000
      vertex   -2.692118e+001 5.896000e+000 2.106932e+000
    endloop
  endfacet
  facet normal -1.322502e-015 1.000000e+000 -3.415251e-016
    outer loop
      vertex   -2.729624e+001 5.896000e+000 3.559286e+000
      vertex   -2.522789e+001 5.896000e+000 5.952433e+000
      vertex   -2.692118e+001 5.896000e+000 2.106932e+000
    endloop
  endfacet
  facet normal -2.445311e-016 1.000000e+000 -1.273193e-015
    outer loop
      vertex   -2.729624e+001 5.896000e+000 3.559286e+000
      vertex   -3.039459e+001 5.896000e+000 2.759162e+000
      vertex   -2.522789e+001 5.896000e+000 5.952433e+000
    endloop
  endfacet
  facet normal -1.225123e-015 1.000000e+000 3.134017e-016
    outer loop
      vertex   -2.522789e+001 5.896000e+000 5.952433e+000
      vertex   -3.039459e+001 5.896000e+000 2.759162e+000
      vertex   -3.191083e+001 5.896000e+000 2.500000e+000
    endloop
  endfacet
  facet normal -3.985279e-016 1.000000e+000 -1.286655e-015
    outer loop
      vertex   -3.859677e+001 5.896000e+000 2.500000e+000
      vertex   -2.522789e+001 5.896000e+000 5.952433e+000
      vertex   -3.191083e+001 5.896000e+000 2.500000e+000
    endloop
  endfacet
  facet normal -7.612323e-016 1.000000e+000 -1.026506e-015
    outer loop
      vertex   -3.039459e+001 5.896000e+000 -2.759162e+000
      vertex   -3.191083e+001 5.896000e+000 -2.500000e+000
      vertex   -3.001953e+001 5.896000e+000 -1.306808e+000
    endloop
  endfacet
  facet normal -7.364336e-016 1.000000e+000 -1.065814e-015
    outer loop
      vertex   -3.001953e+001 5.896000e+000 -1.306808e+000
      vertex   -3.191083e+001 5.896000e+000 -2.500000e+000
      vertex   -3.191083e+001 5.896000e+000 2.500000e+000
    endloop
  endfacet
  facet normal -9.218117e-016 1.000000e+000 -1.461139e-015
    outer loop
      vertex   -3.001953e+001 5.896000e+000 1.306808e+000
      vertex   -3.191083e+001 5.896000e+000 2.500000e+000
      vertex   -3.039459e+001 5.896000e+000 2.759162e+000
    endloop
  endfacet
  facet normal -6.431771e-016 1.000000e+000 -1.019482e-015
    outer loop
      vertex   -3.001953e+001 5.896000e+000 1.306808e+000
      vertex   -3.001953e+001 5.896000e+000 -1.306808e+000
      vertex   -3.191083e+001 5.896000e+000 2.500000e+000
    endloop
  endfacet
  facet normal -2.632729e-016 1.000000e+000 -1.019482e-015
    outer loop
      vertex   -3.001953e+001 5.896000e+000 1.306808e+000
      vertex   -2.692118e+001 5.896000e+000 -2.106932e+000
      vertex   -3.001953e+001 5.896000e+000 -1.306808e+000
    endloop
  endfacet
  facet normal -7.656285e-016 1.000000e+000 -1.475427e-015
    outer loop
      vertex   -3.001953e+001 5.896000e+000 1.306808e+000
      vertex   -2.692118e+001 5.896000e+000 2.106932e+000
      vertex   -2.692118e+001 5.896000e+000 -2.106932e+000
    endloop
  endfacet
endsolid